#format: frame checksums
#version: 2
#hash: MD5
#tb 0: 1001/30000
#media_type 0: video
#codec_id 0: rawvideo
#dimensions 0: 208x224
#sar 0: 1/1
#stream#, dts,        pts, duration,     size, hash
0,          0,          0,        1,    69888, 479d07bb96905ad7d5f0ec3ee12b41ba
0,          1,          1,        1,    69888, 4b6555aaed8e5a45879773f1bf87962e
0,          2,          2,        1,    69888, c5f42cb796dd7b6622957016ca6b502f
0,          3,          3,        1,    69888, f06c954483560866fbff10bae7ba0785
0,          4,          4,        1,    69888, af83aff39999852310395fe241ccb49b
0,          5,          5,        1,    69888, 108377d6f30ceba6f2377330af2da38f
0,          6,          6,        1,    69888, e81e6e0b37a7b92368ede9cab124567c
0,          7,          7,        1,    69888, 59dbe51caaed8e6e825c78c5901fb22c
0,          8,          8,        1,    69888, 24686123ea14c8d1a9b447733df0aaab
0,          9,          9,        1,    69888, ce2035c49237c8076f8dac0d3f61848e
